<?xml version="1.0" encoding="UTF-8"?>
<svg width="38px" height="38px" viewBox="0 0 38 38" version="1.1" xmlns="http://www.w3.org/2000/svg" xmlns:xlink="http://www.w3.org/1999/xlink">
    <!-- Generator: Sketch 60.1 (88133) - https://sketch.com -->
    <title>ico_globe</title>
    <desc>Created with Sketch.</desc>
    <g id="Page-1" stroke="none" stroke-width="1" fill="none" fill-rule="evenodd">
        <g id="PPC-4" transform="translate(-696.000000, -939.000000)" fill="#233A77">
            <g id="USP-+-Video" transform="translate(351.000000, 728.000000)">
                <g id="ico_globe" transform="translate(344.928783, 211.000000)">
                    <g id="world">
                        <path d="M18.9439119,0 C8.48206996,0 0,8.50672908 0,19 C0,29.4935635 8.48206996,38 18.9439119,38 C29.4051704,38 37.8872404,29.4935635 37.8872404,19 C37.8872404,8.50672908 29.4054621,0 18.9439119,0 Z M14.9849514,2.32270334 C13.4386465,4.11878291 12.0965321,6.28847279 11.1199185,8.62902282 L5.31682678,8.62902282 C7.57808981,5.63984786 10.9936121,3.22557051 14.9849514,2.32270334 Z M4.09168428,10.5005851 L10.4195453,10.5078994 C9.64858065,12.8610298 9.18944391,15.406378 9.10164203,18.0669982 L1.87213443,18.0669982 C2.01856813,15.3241662 2.80820165,12.753072 4.09168428,10.5005851 Z M1.87213443,19.9330018 L1.87213443,19.9324166 L9.10193373,19.9324166 C9.18973561,22.5933294 9.64887235,25.1389702 10.419837,27.4921006 L4.09168428,27.4985372 C2.80820165,25.246928 2.01856813,22.6752487 1.87213443,19.9330018 Z M5.31682678,29.3706846 L11.1202102,29.3706846 C12.0962404,31.7112346 13.4389382,33.8803394 14.9852431,35.6770041 C10.9936121,34.7738444 7.57808981,32.359567 5.31682678,29.3706846 Z M18.0186376,36.1237566 C16.0274893,34.3390872 14.3461271,32.0324751 13.1314858,29.3709772 L18.0186376,29.3709772 L18.0186376,36.1237566 Z M18.0186376,27.4985372 L12.3791899,27.4985372 C11.5388005,25.1380925 11.044368,22.597718 10.9504404,19.9330018 L18.0189293,19.9330018 L18.0189293,27.4985372 L18.0186376,27.4985372 Z M18.0186376,18.0669982 L10.9501487,18.0669982 C11.0440763,15.4025746 11.5388005,12.8619075 12.3788982,10.5011703 L18.0186376,10.5011703 L18.0186376,18.0669982 Z M18.0186376,8.62931539 L13.1317775,8.62931539 C14.3464188,5.96811001 16.027781,3.66120538 18.0189293,1.87624342 L18.0189293,8.62931539 L18.0186376,8.62931539 Z M36.0153976,18.0669982 L28.7850149,18.0669982 C28.697213,15.406378 28.2380763,12.8610298 27.4671116,10.5078994 L33.7955561,10.5005851 C35.078747,12.753072 35.8689639,15.3238736 36.0153976,18.0669982 Z M32.5712887,8.62902282 L26.7676136,8.62902282 C25.7915834,6.28876536 24.4488855,4.11907548 22.9019973,2.3229959 C26.8950868,3.22557051 30.3100256,5.63984786 32.5712887,8.62902282 Z M19.8686028,1.87565828 C21.859751,3.66091281 23.5411133,5.96811001 24.7557546,8.62902282 L19.8686028,8.62902282 L19.8686028,1.87565828 Z M19.8686028,10.5011703 L25.5077587,10.5011703 C26.3481481,12.8619075 26.843164,15.4025746 26.9370916,18.0669982 L19.8686028,18.0669982 L19.8686028,10.5011703 Z M19.8686028,19.9330018 L26.9370916,19.9330018 C26.843164,22.597718 26.3484398,25.1380925 25.5083421,27.4985372 L19.8686028,27.4985372 L19.8686028,19.9330018 Z M19.8686028,36.1237566 L19.8686028,29.3709772 L24.7557546,29.3709772 C23.5411133,32.03189 21.859751,34.3390872 19.8686028,36.1237566 Z M22.9019973,35.6772967 C24.4488855,33.8800468 25.7915834,31.7112346 26.7676136,29.3706846 L32.5712887,29.3706846 C30.3100256,32.359567 26.8950868,34.7738444 22.9019973,35.6772967 Z M33.7955561,27.4991223 L27.4665282,27.4921006 C28.2380763,25.1389702 28.697213,22.593622 28.7850149,19.9330018 L28.7850149,19.9332943 L36.0153976,19.9332943 C35.8689639,22.6758338 35.078747,25.2478057 33.7955561,27.4991223 Z" id="Shape" fill-rule="nonzero"></path>
                    </g>
                </g>
            </g>
        </g>
    </g>
</svg>