<?xml version="1.0" encoding="UTF-8"?>
<svg width="40px" height="42px" viewBox="0 0 40 42" version="1.1" xmlns="http://www.w3.org/2000/svg" xmlns:xlink="http://www.w3.org/1999/xlink">
    <!-- Generator: Sketch 60.1 (88133) - https://sketch.com -->
    <title>ico_jet</title>
    <desc>Created with Sketch.</desc>
    <g id="Page-1" stroke="none" stroke-width="1" fill="none" fill-rule="evenodd">
        <g id="PPC-4" transform="translate(-944.000000, -939.000000)" fill="#233A77">
            <g id="USP-+-Video" transform="translate(351.000000, 728.000000)">
                <g id="ico_jet" transform="translate(593.189911, 211.000000)">
                    <g id="plane-up">
                        <path d="M38.0820129,25.6754588 L22.4052555,14.3127477 C22.3751926,3.03704429 21.0608143,0 19.4416121,0 C17.8231091,0 16.5083813,3.03704429 16.4786679,14.3127477 L0.801561001,25.6754588 C0.801561001,25.6754588 0,26.3194519 0,27.2994862 C0,28.279863 0,30.0299486 0,30.0299486 C0,30.0299486 0.0559309901,30.6146807 0.615240891,30.2940543 C1.41994801,29.831955 10.710435,24.5015415 10.710435,24.5015415 L16.7429419,24.5015415 C16.9474396,28.463127 17.2589053,32.3007096 17.6455282,35.3685833 L13.0504478,37.4036702 C12.7459735,37.5389772 12.4970806,37.9168094 12.4970806,38.2439442 L12.4970806,39.6884757 C12.4970806,40.015953 12.7617041,40.2170296 13.0857543,40.1358454 L18.1845631,38.8512846 C18.5662922,40.8099829 18.9924164,42 19.4419617,42 C19.891507,42 20.3176313,40.8096403 20.7000594,38.8512846 L25.7992179,40.1358454 C26.1225689,40.2170296 26.387542,40.015953 26.387542,39.6884757 L26.387542,38.2439442 C26.387542,37.9168094 26.1382995,37.5386347 25.8338252,37.4036702 L21.2387448,35.3685833 C21.6250182,32.3007096 21.9368334,28.4634695 22.1409816,24.5015415 L28.1741875,24.5015415 C28.1741875,24.5015415 37.464325,29.8322975 38.2697312,30.2940543 C38.8286916,30.6150232 38.884273,30.0299486 38.884273,30.0299486 C38.884273,30.0299486 38.884273,28.2802055 38.884273,27.2994862 C38.8835739,26.3194519 38.0820129,25.6754588 38.0820129,25.6754588 Z" id="Path" fill-rule="nonzero"></path>
                    </g>
                </g>
            </g>
        </g>
    </g>
</svg>