<?xml version="1.0" encoding="UTF-8"?>
<svg width="41px" height="36px" viewBox="0 0 41 36" version="1.1" xmlns="http://www.w3.org/2000/svg" xmlns:xlink="http://www.w3.org/1999/xlink">
    <!-- Generator: Sketch 60.1 (88133) - https://sketch.com -->
    <title>ico_24/7</title>
    <desc>Created with Sketch.</desc>
    <g id="Page-1" stroke="none" stroke-width="1" fill="none" fill-rule="evenodd">
        <g id="PPC-4" transform="translate(-1194.000000, -942.000000)" fill="#233A77">
            <g id="USP-+-Video" transform="translate(351.000000, 728.000000)">
                <g id="ico_24/7" transform="translate(843.445104, 214.000000)">
                    <g id="24hr-rtl">
                        <path d="M5.29679044,28.0827371 C2.86519329,30.6136459 4.56734373,32.1645952 4.56734373,32.1645952 C4.56734373,32.1645952 7.7283876,35.3481572 9.34977671,35.6748103 C10.9711658,36.0014635 18.9960527,37.8336612 30.4252404,27.2667574 C41.8541039,16.699527 39.9086964,7.0211198 39.503268,5.55150713 C39.0978397,4.08189447 38.6927356,3.18392487 36.4233098,0.97966919 C34.1535597,-1.22458649 32.1270665,0.97966919 32.1270665,0.97966919 C32.1270665,0.97966919 27.9122333,5.30651725 26.2097585,6.9388032 C24.507608,8.57141581 26.1289972,10.6123449 26.1289972,10.6123449 C26.1289972,10.6123449 26.1289972,10.6123449 27.5878906,11.918631 C29.046784,13.224917 30.7492588,13.1432538 30.7492588,13.1432538 C30.7492588,13.1432538 31.4780568,15.0208562 25.8854158,21.3886334 C20.2927748,27.7560839 17.0506452,26.776451 17.0506452,26.776451 C17.0506452,26.776451 17.6990063,25.7968181 15.0238278,23.021246 C12.3489736,20.2456739 10.4035661,22.9399094 10.4035661,22.9399094 C10.4035661,22.9399094 7.72903629,25.5521549 5.29679044,28.0827371 Z" id="Path" fill-rule="nonzero"></path>
                        <path d="M7.97626113,12.5433787 L2.01202168,12.5433787 L4.20571983,10.423066 C4.56816741,10.0540758 6.16341964,8.37612166 6.52586722,7.91503731 C7.88542289,6.16310097 7.94034834,5.53624728 7.94034834,4.72489846 C7.94034834,1.99584396 5.98264853,1 4.0611633,1 C3.26293361,1 2.21210723,1.16607632 1.34144838,1.9221687 C0.254105633,2.88117503 0.199783763,4.09804477 0.181374685,4.72489846 L2.0853562,4.72489846 C2.0853562,4.2453953 2.12157078,2.49376594 4.13359246,2.49376594 C5.92802487,2.49376594 6.14561414,3.95069425 6.14561414,4.57754794 C6.14561414,5.25996505 5.94643395,5.83156229 5.22123699,6.84582507 C4.65960922,7.62033626 3.97062685,8.35770284 3.28164448,9.04011996 L0,12.3220459 L0,14 L7.97626113,14 L7.97626113,12.5433787 Z" id="Path" fill-rule="nonzero"></path>
                        <path d="M18.9595341,9.71637219 L18.9595341,1 L16.8440926,1 L10.9673591,9.01154175 L10.9673591,11.2183433 L17.0785619,11.2183433 L17.0785619,14 L18.9595341,14 L18.9595341,11.2183433 L20.9376855,11.2183433 L20.9376855,9.71637219 L18.9595341,9.71637219 Z M17.137913,9.71637219 L12.4560272,9.71637219 L17.1375869,2.94746841 L17.137913,9.71637219 L17.137913,9.71637219 Z" id="Shape" fill-rule="nonzero"></path>
                    </g>
                </g>
            </g>
        </g>
    </g>
</svg>